<?xml version="1.0" encoding="UTF-8" standalone="no"?>
<!-- Created with Inkscape (http://www.inkscape.org/) -->

<svg
   xmlns:dc="http://purl.org/dc/elements/1.1/"
   xmlns:cc="http://creativecommons.org/ns#"
   xmlns:rdf="http://www.w3.org/1999/02/22-rdf-syntax-ns#"
   xmlns:svg="http://www.w3.org/2000/svg"
   xmlns="http://www.w3.org/2000/svg"
   xmlns:sodipodi="http://sodipodi.sourceforge.net/DTD/sodipodi-0.dtd"
   xmlns:inkscape="http://www.inkscape.org/namespaces/inkscape"
   width="250.28125"
   height="449.99316"
   id="svg2"
   version="1.1"
   inkscape:version="0.48.1 r9760"
   sodipodi:docname="poetess-small.svg"
   style="enable-background:new">
  <defs
     id="defs4" />
  <sodipodi:namedview
     id="base"
     pagecolor="#ffffff"
     bordercolor="#666666"
     borderopacity="1.0"
     inkscape:pageopacity="0.0"
     inkscape:pageshadow="2"
     inkscape:zoom="0.62"
     inkscape:cx="10.896111"
     inkscape:cy="297.55245"
     inkscape:document-units="px"
     inkscape:current-layer="layer2"
     showgrid="false"
     inkscape:window-width="1408"
     inkscape:window-height="818"
     inkscape:window-x="4"
     inkscape:window-y="323"
     inkscape:window-maximized="0"
     fit-margin-top="0"
     fit-margin-left="0"
     fit-margin-right="0"
     fit-margin-bottom="0"
     inkscape:snap-bbox="false" />
  <metadata
     id="metadata7">
    <rdf:RDF>
      <cc:Work
         rdf:about="">
        <dc:format>image/svg+xml</dc:format>
        <dc:type
           rdf:resource="http://purl.org/dc/dcmitype/StillImage" />
        <dc:title />
      </cc:Work>
    </rdf:RDF>
  </metadata>
  <g
     inkscape:groupmode="layer"
     id="layer3"
     inkscape:label="skirt"
     style="display:inline"
     transform="translate(-175.09375,-321.37414)">
    <path
       style="fill:#b88601;fill-opacity:0.79227056;stroke:#000000;stroke-width:0.46526048px;stroke-linecap:butt;stroke-linejoin:miter;stroke-opacity:1"
       d="m 247.95539,656.29941 -39.96282,2.79503 78.99628,-109.00602 131.97026,107.14267 -48.32714,-0.93168 c -40.64651,-47.65253 -92.33796,-44.36793 -122.67658,0 z"
       id="path3858"
       inkscape:connector-curvature="0"
       sodipodi:nodetypes="cccccc" />
  </g>
  <g
     inkscape:groupmode="layer"
     id="layer4"
     inkscape:label="skirtinset"
     transform="translate(-175.09375,-321.37414)">
    <path
       sodipodi:type="arc"
       style="fill:#000000;fill-opacity:1;stroke:#111111;stroke-width:10;stroke-miterlimit:4;stroke-opacity:1;stroke-dasharray:none"
       id="path3833"
       sodipodi:cx="109"
       sodipodi:cy="418.36218"
       sodipodi:rx="11"
       sodipodi:ry="14"
       d="m 120,418.36218 c 0,7.73199 -4.92487,14 -11,14 -6.07513,0 -11,-6.26801 -11,-14 0,-7.73198 4.92487,-14 11,-14 6.07513,0 11,6.26802 11,14 z"
       transform="matrix(0.46468401,0,0,0.46583768,160.5948,291.84563)" />
    <path
       sodipodi:type="arc"
       style="fill:#000000;fill-opacity:1;stroke:#111111;stroke-width:10;stroke-miterlimit:4;stroke-opacity:1;stroke-dasharray:none"
       id="path3835"
       sodipodi:cx="479"
       sodipodi:cy="371.36218"
       sodipodi:rx="13"
       sodipodi:ry="11"
       d="m 492,371.36218 c 0,6.07513 -5.8203,11 -13,11 -7.1797,0 -13,-4.92487 -13,-11 0,-6.07513 5.8203,-11 13,-11 7.1797,0 13,4.92487 13,11 z"
       transform="matrix(0.46468401,0,0,0.46583768,160.5948,291.84563)" />
    <path
       style="fill:#539440;fill-opacity:0.75294118;stroke:#000000;stroke-width:0.46526048px;stroke-linecap:butt;stroke-linejoin:miter;stroke-opacity:1"
       d="m 248.88476,656.29941 c 13.09063,-18.32023 26.28857,-36.49703 53.90334,-35.40366 34.14397,4.2197 55.34097,18.17373 69.70261,37.26701 z"
       id="path3860"
       inkscape:connector-curvature="0"
       sodipodi:nodetypes="cccc" />
    <path
       style="fill:none;stroke:#111111;stroke-width:4.65260506;stroke-linecap:butt;stroke-linejoin:miter;stroke-miterlimit:4;stroke-opacity:1;stroke-dasharray:none"
       d="m 218.21561,346.98319 c 4.15537,9.77352 1.6023,-23.48091 -22.30483,-23.29188"
       id="path3862"
       inkscape:connector-curvature="0"
       sodipodi:nodetypes="cc" />
    <path
       style="fill:none;stroke:#111111;stroke-width:4.65260506;stroke-linecap:butt;stroke-linejoin:miter;stroke-miterlimit:4;stroke-opacity:1;stroke-dasharray:none"
       d="m 207.99257,371.20675 c -17.11042,-12.79939 -28.32363,-2.34727 -30.66915,5.59006"
       id="path3866"
       inkscape:connector-curvature="0"
       sodipodi:nodetypes="cc" />
    <path
       style="fill:none;stroke:#111111;stroke-width:4.65260506;stroke-linecap:butt;stroke-linejoin:miter;stroke-miterlimit:4;stroke-opacity:0.94117647;stroke-dasharray:none"
       d="M 211.56014,356.05952 C 199.73201,340.93712 195.4659,339.75189 180.08154,344.0379"
       id="path3868"
       inkscape:connector-curvature="0"
       sodipodi:nodetypes="cc" />
  </g>
  <g
     inkscape:label="Layer 1"
     inkscape:groupmode="layer"
     id="layer1"
     style="display:inline"
     transform="translate(-175.09375,-321.37414)">
    <path
       style="fill:#15676c;fill-opacity:0.85507244;stroke:#111111;stroke-width:4.65260506;stroke-linecap:butt;stroke-linejoin:miter;stroke-miterlimit:4;stroke-opacity:1;stroke-dasharray:none"
       d="m 244.23792,333.00807 -21.37547,81.05575 136.6171,-13.97513 z"
       id="path3039"
       inkscape:connector-curvature="0" />
    <path
       style="fill:none;stroke:#111111;stroke-width:4.65260506;stroke-linecap:butt;stroke-linejoin:miter;stroke-miterlimit:4;stroke-opacity:1;stroke-dasharray:none"
       d="m 278.62454,405.67874 10.22304,144.40968"
       id="path3043"
       inkscape:connector-curvature="0" />
    <path
       style="fill:none;stroke:#111111;stroke-width:4.65260506;stroke-linecap:butt;stroke-linejoin:miter;stroke-miterlimit:4;stroke-opacity:1;stroke-dasharray:none"
       d="m 208.92193,487.66617 0,0 170.07435,-21.42853"
       id="path3045"
       inkscape:connector-curvature="0" />
    <path
       style="fill:none;stroke:#111111;stroke-width:4.65260506;stroke-linecap:butt;stroke-linejoin:miter;stroke-miterlimit:4;stroke-opacity:1;stroke-dasharray:none"
       d="m 286.98885,549.15675 -78.99628,109.93769 210.96654,0 z"
       id="path3047"
       inkscape:connector-curvature="0" />
    <path
       style="fill:none;stroke:#111111;stroke-width:4.65260506;stroke-linecap:butt;stroke-linejoin:miter;stroke-miterlimit:4;stroke-opacity:1;stroke-dasharray:none"
       d="m 225.65056,727.10674 c 26.95456,-184.19133 167.50059,-89.4327 176.57992,-0.93168"
       id="path3049"
       inkscape:connector-curvature="0"
       sodipodi:nodetypes="cc" />
    <path
       sodipodi:type="arc"
       style="fill:#00d800;fill-opacity:1;stroke:#111111;stroke-width:19;stroke-miterlimit:4;stroke-opacity:1;stroke-dasharray:none"
       id="path3056"
       sodipodi:cx="143"
       sodipodi:cy="945.36218"
       sodipodi:rx="9"
       sodipodi:ry="11"
       d="m 152,945.36218 c 0,6.07513 -4.02944,11 -9,11 -4.97056,0 -9,-4.92487 -9,-11 0,-6.07513 4.02944,-11 9,-11 4.97056,0 9,4.92487 9,11 z"
       transform="matrix(0.46468401,0,0,0.46583768,160.5948,291.84563)" />
    <path
       sodipodi:type="arc"
       style="fill:#e22d24;fill-opacity:1;stroke:#111111;stroke-width:10;stroke-miterlimit:4;stroke-opacity:1;stroke-dasharray:none"
       id="path3058"
       sodipodi:cx="549"
       sodipodi:cy="975.36218"
       sodipodi:rx="41"
       sodipodi:ry="43"
       d="m 590,975.36218 c 0,23.74825 -18.35633,43.00002 -41,43.00002 -22.64367,0 -41,-19.25177 -41,-43.00002 0,-23.74824 18.35633,-43 41,-43 22.64367,0 41,19.25176 41,43 z"
       transform="matrix(0.46468401,0,0,0.46583768,148.51301,294.64066)" />
  </g>
  <g
     inkscape:groupmode="layer"
     id="layer2"
     inkscape:label="ey"
     style="display:inline"
     transform="translate(-175.09375,-321.37414)">
    <path
       sodipodi:type="arc"
       style="fill:#539440;fill-opacity:0.75362321;stroke:#111111;stroke-width:10;stroke-miterlimit:4;stroke-opacity:1;stroke-dasharray:none"
       id="path3837"
       sodipodi:cx="137"
       sodipodi:cy="168.36218"
       sodipodi:rx="49"
       sodipodi:ry="50"
       d="m 186,168.36218 c 0,27.61424 -21.93805,50 -49,50 -27.06195,0 -49,-22.38576 -49,-50 0,-27.61423 21.93805,-50 49,-50 27.06195,0 49,22.38577 49,50 z"
       transform="matrix(0.39451044,0,0,0.4248471,173.92605,296.41771)" />
  </g>
</svg>
